<svg xmlns:svg="http://www.w3.org/2000/svg" xmlns="http://www.w3.org/2000/svg" width="400" height="400" version="1.1"><defs><linearGradient><stop offset="0" style="stop-color:#000080;stop-opacity:1"/><stop offset="1" style="stop-color:#000080;stop-opacity:0"/></linearGradient><linearGradient><stop offset="0" style="stop-color:#000083;stop-opacity:1"/><stop offset="1" style="stop-color:#000083;stop-opacity:0"/></linearGradient><linearGradient gradientUnits="userSpaceOnUse" x1="-2558.1" y1="-14.1" x2="-2603.7" y2="-120.6"/><linearGradient gradientUnits="userSpaceOnUse" gradientTransform="translate(3384.0098,648.65732)" x1="-2659.7" y1="162.4" x2="-2627.9" y2="74"/></defs><g transform="translate(0,-652.36218)"><g transform="matrix(0.35934445,0,0,0.35934445,-23.585615,488.84165)"><path d="m384.7 1451 155.4-53 337 11.1 1.1 23.6c-5.5 26.9-26.9 50.3-38.5 62.6-49.7 15.3-92.5 4.4-152.3 23.3-17-1.8-22.2-15.4-30.4-26-20.8-5-41.9-7.6-64 2-3.3 6.9-7 13.5-16.9 15.1-40.4 5.3-109.9-0.3-143.6-5.2-25.4-2.9-44.8-25-47.9-53.6zM479.8 1064.6l335.4-12.1 16 88.2 44.7 162.2 11.1 69.8M479.8 1064.6l335.4-12.1 16 88.2 44.7 162.2 11.1 69.8c-75.9 40-153.9 71.9-239.3 75.9l-83.6-86.4-71.5 67.2c-30.7-0.1-88.6-4.2-116.3-29.9-27.3-118.6 31.8-247.8 103.6-334.9z" class="s0"/><path d="m824 1063.8c-28.9 27.3-66.8 33.3-103.7 48.2l-23.5 40.9c-20 6-36.4 11.9-39 31.3 78.6 22.2 11.9 19.4-20.3 9.1-16.1 0.7-19.6 28.7 3.9 40-8.1 7.5-24.6 25.3-24.8 48.5-2.4 24.5 33.3 68.2 93.8 58.3 26.7-5.8 49.9-15.4 61-38.2 25.1-2.8 43.9-21.6 42.1-63.3-1.2-1.7-2.4-3.3-3.6-4.9 8.1-21.7 19.6-49.2 26.6-77.5-10.5-17.8-10.3-62.8-12.7-92.4z" class="s1"/><path d="m704.7 1114.6 99.3-55c35.6 105.7 62.9 211.4 87.1 317.1l-162.9 45.7c123.8-135.6 54.7-258-23.6-307.9z" class="s2"/><path d="m721.2 1111c35.2-14.8 68.1-33.3 95.7-60.4 14 6.5 15.6 17.1 17.2 28.2 6.8 47.5-17.9 104.9-31.4 142.9l-98.2-70.7c5.6-12.2 11.2-22.5 16.8-40zM469.7 1027.1l12.5 36.8M469.7 1027.1l12.5 36.8c-16.2 18.6-31.4 39-45.7 61.4l-61.1 3.2c20-41.9 58.6-86 94.3-101.4z" class="s0"/><path d="m415 1124.7c-19.4-1-40.7 3.5-51.2 14.6-15.3 21.2-11.9 52.1-1.5 65.9l1.8-0.8c-6.4 28.9-1 52.5 9.9 69.1 17.5 21 56.1 31.1 73.1 1.5 8.5-20.6-4.2-46.6-8.7-70.5l11.9-5.9c8.3-12.7 6.1-22.2-5-29.1l0.8-0.3c12.3-8.2 10.7-26.5 2.1-34.9-7.5-5.6-19.9-8.9-33.2-9.6z" class="s1"/><path d="m375.4 1276c24.5-82.2 54.9-147.1 105.7-210l28.6 44.3c-91.6 38.2-133.3 194.6-105.7 308.6l-27.1-21.4c-13.3-43-6.5-82.1-1.4-121.4z" class="s2"/><path d="m358.9 1135.6c17.5-19.4 65.1-21.9 83.3-9.5 8.5 7.7 10.1 25.6-2 34.3l-82.7 39.9c-10.2-13-13.6-43.1 1.5-64.6z" class="s3"/><path d="m399 1161.4c12.5-0.5 22.1 1.9 38-2 13.1 6.1 16.2 15.7 7.4 29.5l-11.8 6.4c4.5 23.2 16.9 48 8.6 68.6-16.8 29.9-54.9 22.1-72.1 2.5-11.9-17.3-17.1-43.4-7.3-76.5 5.9-14.9 21.1-22.1 37.3-28.5z" class="s0"/><path d="m705.1 1152.4c41.9 14.3 77.9 35.7 101.8 71.8 1.7 41.5-16.3 60.1-40.4 62.9l4-13.6c-12.4-42-56.6-80.1-104.7-89.2-5-15.1 19.4-27.8 39.3-31.8z" class="s3"/><path d="m638.7 1179.2c22.2 7.4 37 9.9 54 13.8 36.5 13.6 67.3 43.7 78.5 80.8-7.4 32.3-32.8 44.3-62.9 51.1-57.8 9.8-92-33.5-89.6-57.9 0.2-23.1 15.9-40.7 23.7-48.1-22.5-11.2-19.1-39.1-3.7-39.7z" class="s0"/><path d="m374.3 1400.8c32.4 24.3 73.9 27 115.7 28.9l34.7-30.9c-22.4-90.8-28.8-176.7 6.7-274l72.9 6.4c-29.1 80.6-28.1 156.9-7.4 246.7l55.4 58.2c83-2.4 160.5-24.3 235.9-64.5 13.5 4.7 18 43.8 0 58.3-92.8 66.5-175.1 67.3-256.7 72.3-20.4-19.3-37.5-51.2-56.2-76.8l-19.2-0.6-31.8 70.3c-44.9 3.3-105.6-17.6-151-38.4-12.2-21.3-13.4-40.2 1-55.7z" class="s3"/><path d="m471.2 1075.3c-1.9-15.1-3.2-30.6-12.5-42l14.2-8 17.6 32.7 326.4-6.9 8.6 6.4c-39.5 22.2-78.9 44.3-110 69.3-24.8 13.9-73.8 19-118.6 25.7-11.5-4.5-24.6-4.3-38.9-0.2-9.9-4.3-20.3-7.7-33.9-5.5-22.4-16-37.9-43.3-52.9-71.4z" class="s1"/><path d="m436.9 1504.5 139.4 4-7.1 32.3c-52.5 10.1-106.4 11.4-161.6 4zM690.8 1516.4 690.8 1516.4c53-11.6 100.3-13.8 149.6-19.3l0 38.2c-49.3 17.2-136.2 21.3-169.3 13.6z" class="s4"/><path d="m568.3 1126c-26.2 57.6-32.4 128.8-20 213.6" style="fill:none;stroke-width:4;stroke:#500"/><path transform="matrix(1.0747927,0,0,1.3129796,3571.043,525.92722)" d="m-2505.7 243.8c0 81.3-79 147.1-176.4 147.1-97.4 0-176.4-65.9-176.4-147.1 0-81.3 79-147.1 176.4-147.1 97.4 0 176.4 65.9 176.4 147.1z" style="fill:#f9dcb2;stroke-linecap:round;stroke-linejoin:round;stroke-width:4;stroke:#500"/><path d="m475.2 876c2.4-18.3 11.6-41.1 18.3-54.9l7.5-54.9 19.4-22 20.4-8.2c-21.3 26.6-54.5 102.2-15 162.9l190.8 41.9c57.5 2.9 105.8-15.5 133.8-81 14.2 24.3 38.3 45.1 39.3 74.2-8.3 21.7-4.4 32.7-2.4 45.4 14.3 22.3 27.3 18.9 40.3 14.8-15.9 49.2-50.7 71-93.4 81.3-4.1-7.6-7.4-15-18-23.9-32.6 32.7-75.5 55-130.8 71.5-61.8 18.4-125.7 11.4-163.8 0.1-53.5-58.1-86.8-152.5-46.5-247.2zM504.4 884.2 504.4 884.2c30.6 12.5 33.4-12.4 68.5-13.6 13.8 21.3 41.5 32.2 67.9 14.3 31.5 7.7 50 53.4 86.8 43.9-5.2 33.9-31.3 65.1-63.8 65.2-28 0-58.3-16.1-71.2-50.2-18.7 17.2-39.3 24.1-64.4 5.4-19.6-14.6-23.8-43.9-23.8-65z" class="s5"/><path transform="matrix(1.0393999,0,0,1.0389936,3494.3286,640.85522)" d="m-2802 184.1c0 7.7-5.2 14-11.6 14-6.4 0-11.6-6.3-11.6-14 0-7.7 5.2-14 11.6-14 6.4 0 11.6 6.3 11.6 14z" class="s6"/><path d="m726 868.5c-1.4 8.4-8.2 16.8-15.9 16.8-7.7 0-13.4-6.3-13.4-14.8 0-8.5 7.7-18.7 16.8-18.7 7.7 0 13.9 7.9 12.5 16.8z" class="s6"/><path d="m571.7 862.8c9 33.9 53.5 41.4 73 16.7" class="s7"/><path d="m714.7 616.9c1-6.1 5.2-11.3 12.6-12.7 10.6-13.6 15.4-27.7 18.6-41.9l79.8 8.4c56.4 60.6 105.2 139.3 92.4 241.9L585.9 649.5c35.6-22.7 80.5-35.7 128.8-32.6z" class="s0"/><path d="m589.9 647.4c67-11 117.4-0.5 157.9 15.5 72.7 35.4 135.9 79.4 172.4 148.3 9.2 18.4 17 36.5 22.4 54-1.6 38.2-21 49.1-31.9 72.9-9.7 10.3-15.7 7.5-22.9 9.2l-0.4-24.7c-30.3-72.4-100.9-129.7-171-160.4-64.1-28.1-136.7-42-195.6-16.9-6.8 7.1-13.1 14.8-19.8 23.3-9.3-11.2-5.5-32.5-6-49.7 18-27.8 33.4-33.9 50.3-52.9 7.3-8.7 14.6-20.2 44.5-18.6z" style="fill:#fdfefd;stroke-width:4;stroke:#500"/><path transform="matrix(0.93426635,0,0,1.0071216,3218.4309,648.05635)" d="m-2530.7-116.2c0 32.3-28.8 58.6-64.3 58.6-35.5 0-64.3-26.2-64.3-58.6 0-32.3 28.8-58.6 64.3-58.6 35.5 0 64.3 26.2 64.3 58.6z" class="s3"/><path transform="matrix(0.78154186,0,0,0.84248745,2822.6821,631.78149)" d="m-2530.7-116.2c0 32.3-28.8 58.6-64.3 58.6-35.5 0-64.3-26.2-64.3-58.6 0-32.3 28.8-58.6 64.3-58.6 35.5 0 64.3 26.2 64.3 58.6z"/><path d="m365.8 1329.6c111.9 50.6 361.6 36.7 513.9-26.4l8.6 56.4c-165.5 67.1-337.9 78.7-518.6 23.9z" class="s8"/><path d="m497.9 1338.5c40.2 2.6 80.5 3.8 120.7-2.1 3.9 31.6 3.5 59.5 0.7 85.4-41.6 3.9-81.7 2.8-121.4 0-1.9-26.7-4.6-52.9 0-83.2z" style="fill:#ccc;stroke-linecap:round;stroke-linejoin:round;stroke-width:4;stroke:#500"/><path d="m521.9 1363.2c22.3 0 45.5 0.5 69.6 1.4l-0.4 36.8c-22.6 0-45.2-1.3-67.9-3.2z" class="s8"/><path d="m551.5 671.7c169.3-2.6 304.2 52.2 382.8 196-8.2 22-18.4 40-29.3 56.6-54.8-132.4-241-230.7-402.5-202.5 6.7-16.7 31.5-33.3 49-50z"/><path d="m831.6 578-7 2.8c22 30.4 28.2 99.8 15.3 136.7 28.2 25.1 51.8 45.8 68.2 77.3l-8.9 102.8c-40.3-53.5-110.5-128.3-216.8-148 42.4 26.4 124.4 70.4 148.1 127.5-22.9 33.1-50.7 52.6-88.4 62.8 33.4-2.5 62.5-8.5 83.6-36l47.5 26.5c-37 89.9-188.5 175.1-332.5 155.3-62.2-41.4-70.6-106.3-77.1-183.2-20 85.3 13.2 166.7 57.8 219.2 104.4 30.3 214.3 9.5 294.4-68.4l20.9 20.5c40.5-10.9 71.9-36.4 93.3-77.8-17.4 13.3-47.1 47.5-67.1 30.8-11.9-12.8-0.7-60 26-80.2l22.6-8.2c14.5-23.1 33.1-44.6 31-74.1l-23.1-57.3c3.8-75.8-18.5-156-87.5-229z" class="s2"/><path d="m823.4 479.9c7.7 9.3 12.3 21.1 12.3 34 0 29.9-24.7 54.1-55.1 54.1-18.6 0-35-9.1-45-23 6.3 26 30 45.3 58.4 45.3 33.2 0 60.1-26.4 60.1-59 0-22.1-12.4-41.3-30.7-51.4zM499.8 899.3l7.6 6.4 6.3-2.6M499.8 899.3l7.6 6.4 6.3-2.6c-0.5 34.6 51.3 45.1 79.5 24.9 23.2 39.7 78.4 63.5 129.3 20.1l-3.8 11.1 13.9-3.8c-41.8 66.8-101.6 55.5-144.8 8.1-44.5 24.6-79-7.9-87.9-64.3zM570.4 862.1c9.3 7.7 18.3 15.8 30.4 20.4 16.8 4 30 0.4 43.6-2.5-7.8 8.9-24.5 17.7-45.7 11.1-17.1-4.7-22.7-16.8-28.2-28.9zM524.6 743.7l11.7-1.6c24.5-14.5 76.4-8.2 107.3-3.5-39.9-3.2-91.1 4.5-114.7 16.3-6.1-0.4-16 5.7-26 11.9z" class="s2"/><path d="m714.6 616.8c7.9-0.1 14.9 0.6 20.8 1.4" class="s7"/><path d="m526.7 1507c23-3.2 43.3-4.5 53.6-19.1l34.3-3.5 1.3 4.8-24 4.5c-1 9-7.6 12.5-15.3 14.8l-9.1 34.7-111.6 7.6zM367.7 1441.9 367.7 1441.9c52.3 31.2 118.2 45.4 152.3 46.2l23.5-55.3c-10.8-3-27.9-7-46-7.4l1.5-3.3 77.7 2.1 4.5 13.2-21.1-1.6-30.8 69.2-130.8-21.7-11.5-20.3-13.9-5.4zM783.3 1500.3l26.4-1 25-24.7c-53.5 21.2-109.9 25.5-166.2 31l-5.7-6.5c75.9-2.6 152.8-24.4 214.7-61.5-7.2 20.6-19.5 39.9-37.2 57.7l0 40c-26.3 10.5-54.7 12.6-82.9 15.7zM594.7 1453.9l38.7 37.6c78.1-2.7 192.8-11.3 265.6-83.3l-5.7 17.9c-83.7 63.5-176 68.7-263.6 77.1z" class="s9"/><path d="m375.3 1386.2c28.8 24.2 74.4 35 113.8 37.8l8.5-4.8 4 6.7-9.7 9c-40.2 0.9-88.9-5-121.1-29.3l4-6.2zM633.7 1418.9l24.3 6.7M633.7 1418.9l24.3 6.7c80.8-0.4 154.6-28.5 227.9-58.8l2.9 6.1 8.6 10.7c-76.3 34.2-156.2 58.4-243.9 60.4z" class="s2"/><path d="m497.6 1344.2 5.5 10.2c0 22.6 0.6 43.9 3.5 60.9 35.4 2 70 2.2 103.4-0.5 2.3-18.7 3.1-39.2 1.6-62.6l7.8-4.7 0 73.9c-40.7 2.9-80.9 2.5-120.7-0.4-3.4-24.6-3.3-50.3-1.1-76.8z" class="s1"/><path d="m774.8 1186.9 9.6 7c18.3-27.5 51-108.2 22-133.7l9-8.2c46.6 45.8 0.6 110.6-9.8 169.7-1.2 50.6-17.9 59.5-36.4 63.6-38.6 47.2-90.1 53.3-132.8 19.2 58 14.3 102.1 2.2 115.8-68l-11.6-12.6c25.3 1.6 31.4-16 34.1-37.1zM507.6 1226.8 507.6 1226.8c4.1 30.3-1.2 79.9 16.8 83.3 18.4-0.8 15.5-29.7 18.5-41.6 4.2 14.4 2.9 39.4 22.3 40.5 18.4-3.2 12.5-51.8 18.2-79.2 1.5 47.9 4.8 79.9 20.2 106.1-36.8 5.1-70.8 4.5-103.5 1.5-2.4-40.7-0.7-57.9 7.6-110.6z" class="s10"/><path d="m679.3 1198c23.8 2 36.7 13.6 50 24.7-45 21.1-68.9 47-78.8 80.3-12.8-4-20.5-15-25.3-29.8 3.9-20.6 13.3-38.8 33.3-52.7-2.7-7.4-7.9-10.9-3-29.7z" style="fill:#ff0;filter:url(#filter4418);opacity:0.2"/><path d="m728.6 1118.4 53.8-30.6c-12.6 26.5-26 53-32.1 79.5l-39.4-16.9z" style="fill:#ff0;filter:url(#filter4413);opacity:0.2"/><path d="m364.2 1198.5c7.6-21 23.4-24.3 37.4-31.3-19.6 28.6-29.7 70.4-13.6 101.5-8.4-1.5-13.7-0.7-21.7-20.7-3.2-11.5-7.9-20-2-49.5z" style="fill:#ff0;filter:url(#filter4426);opacity:0.2"/><path d="m457.1 1038.9 2 13.6c-21.9 17-38.5 37.2-51 59.6l-18.2 0.5c17.8-29.2 38.6-55.3 67.2-73.7z" style="fill:#ff0;filter:url(#filter4422);opacity:0.2"/><path d="m356.6 1199.5c-8.3-22.5-9.8-44.2 4.7-64.1l17.6-15.6c22.4-31 44.1-62.6 76.9-84.5-28.6 23.4-51.4 50.7-63.8 84.8-10.7 9.2-34 16.8-27.1 49.2l33.1-7.2-24.5 13.3c-17 63.6 9.2 93.1 41.7 108.4l-24.2-5.1c-26.8-7.3-34.4-38.5-34.3-79.3z" class="s1"/></g></g></svg>